{"title":"Neighbors.2.Sorority.Rising.2016.HC.HDRip.540MB.mp4","uid":14781923,"size":566436342,"categoryP":"video","categoryS":"movies","magnet":"?xt=urn:btih:c9c8c1056eed4eefa051150400e53e79ece24ce0&amp;dn=Neighbors.2.Sorority.Rising.2016.HC.HDRip.540MB.mp4&amp;tr=udp%3A%2F%2Ftracker.leechers-paradise.org%3A6969&amp;tr=udp%3A%2F%2Fzer0day.ch%3A1337&amp;tr=udp%3A%2F%2Fopen.demonii.com%3A1337&amp;tr=udp%3A%2F%2Ftracker.coppersurfer.tk%3A6969&amp;tr=udp%3A%2F%2Fexodus.desync.com%3A6969","seeders":2,"leechers":4,"uploader":"PurePowerPunk","files":1,"time":1464993530,"description":"\n\r\n\r\n\r\n\r\nFormat                    : MPEG-4\r\nFormat profile            : Base Media / Version 2\r\nCodec ID                  : mp42\r\nFile size                 : 540 MiB\r\nDuration                  : 1h 31mn\r\nOverall bit rate mode     : Variable\r\nOverall bit rate          : 828 Kbps\r\n\r\n\r\nVideo\r\n-----\r\nID                        : 1\r\nFormat                    : AVC\r\nFormat/Info               : Advanced Video Codec\r\nFormat profile            :   \r\nFormat settings, CABAC    : Yes\r\nFormat settings, ReFrames : 3 frames\r\nCodec ID                  : avc1\r\nCodec ID/Info             : Advanced Video Coding\r\nDuration                  : 1h 31mn\r\nSource duration           : 1h 31mn\r\nBit rate                  : 695 Kbps\r\nWidth                     : 720 pixels\r\nHeight                    : 306 pixels\r\nDisplay aspect ratio      : 2.35:1\r\nFrame rate mode           : Variable\r\nFrame rate                : 23.976 fps\r\nMinimum frame rate        : 23.976 fps\r\nMaximum frame rate        : 24.000 fps\r\nStandard                  : NTSC\r\nColor space               : YUV\r\nChroma subsampling        : 4:2:0\r\nBit depth                 : 8 bits\r\nScan type                 : Progressive\r\nBits/(Pixel*Frame)        : 0.132\r\nStream size               : 453 MiB (84%)\r\nSource stream size        : 453 MiB (84%)\r\nLanguage                  : English\r\n\r\n\r\n\r\nAudio\r\n-----\r\nID                        : 2\r\nFormat                    : AAC\r\nFormat/Info               : Advanced Audio Codec\r\nFormat profile            : LC\r\nCodec ID                  : 40\r\nDuration                  : 1h 31mn\r\nBit rate mode             : Variable\r\nBit rate                  : 125 Kbps\r\nMaximum bit rate          : 223 Kbps\r\nChannel count             : 2 channels\r\nChannel positions         : Front: L R\r\nSampling rate             : 48.0 KHz\r\nCompression mode          : Lossy\r\nStream size               : 81.8 MiB (15%)\r\nLanguage                  : English","torrent":{"xt":"urn:btih:c9c8c1056eed4eefa051150400e53e79ece24ce0","amp;dn":"Neighbors.2.Sorority.Rising.2016.HC.HDRip.540MB.mp4","amp;tr":["udp%3A%2F%2Ftracker.leechers-paradise.org%3A6969","udp%3A%2F%2Fzer0day.ch%3A1337","udp%3A%2F%2Fopen.demonii.com%3A1337","udp%3A%2F%2Ftracker.coppersurfer.tk%3A6969","udp%3A%2F%2Fexodus.desync.com%3A6969"],"infoHash":"c9c8c1056eed4eefa051150400e53e79ece24ce0","infoHashBuffer":{"type":"Buffer","data":[201,200,193,5,110,237,78,239,160,81,21,4,0,229,62,121,236,226,76,224]},"announce":[],"urlList":[]}}